<svg width="84" height="125" viewBox="0 0 84 125" fill="none" xmlns="http://www.w3.org/2000/svg">
<path d="M43.2001 51.75H40.8001C39.4747 51.75 38.4001 52.6768 38.4001 53.82V111.78C38.4001 112.923 39.4747 113.85 40.8001 113.85H43.2001C44.5256 113.85 45.6001 112.923 45.6001 111.78V53.82C45.6001 52.6768 44.5256 51.75 43.2001 51.75Z" fill="#8B4513"/>
<path d="M42.0001 62.1C58.5687 62.1 72.0001 48.1984 72.0001 31.05C72.0001 13.9016 58.5687 0 42.0001 0C25.4316 0 12.0001 13.9016 12.0001 31.05C12.0001 48.1984 25.4316 62.1 42.0001 62.1Z" fill="#52B788"/>
<path d="M24 72.2749C37.2548 72.2749 48 60.6903 48 46.3999C48 32.1095 37.2548 20.5249 24 20.5249C10.7452 20.5249 0 32.1095 0 46.3999C0 60.6903 10.7452 72.2749 24 72.2749Z" fill="#2D6A4F"/>
<path d="M60 72.2749C73.2548 72.2749 84 60.6903 84 46.3999C84 32.1095 73.2548 20.5249 60 20.5249C46.7452 20.5249 36 32.1095 36 46.3999C36 60.6903 46.7452 72.2749 60 72.2749Z" fill="#2D6A4F"/>
<path opacity="0.2" d="M42.0001 124.2C56.5804 124.2 68.4001 119.566 68.4001 113.85C68.4001 108.134 56.5804 103.5 42.0001 103.5C27.4198 103.5 15.6001 108.134 15.6001 113.85C15.6001 119.566 27.4198 124.2 42.0001 124.2Z" fill="#8B4513"/>
</svg>
