<svg width="16" height="16" viewBox="0 0 16 16" fill="none" xmlns="http://www.w3.org/2000/svg">
<path d="M7.33328 13.3334C6.16265 13.3369 5.03345 12.9004 4.16962 12.1103C3.3058 11.3203 2.77046 10.2344 2.66977 9.06811C2.56908 7.90182 2.91041 6.74028 3.62605 5.81387C4.34168 4.88746 5.37936 4.26384 6.53328 4.06671C10.3333 3.33337 11.3333 2.98671 12.6666 1.33337C13.3333 2.66671 13.9999 4.12004 13.9999 6.66671C13.9999 10.3334 10.8133 13.3334 7.33328 13.3334Z" stroke="white" stroke-width="1.33333" stroke-linecap="round" stroke-linejoin="round"/>
<path d="M1.33337 14C1.33337 12 2.56671 10.4267 4.72004 10C6.33337 9.68 8.00004 8.66667 8.66671 8" stroke="white" stroke-width="1.33333" stroke-linecap="round" stroke-linejoin="round"/>
</svg>
