<svg width="23" height="23" viewBox="0 0 23 23" fill="none" xmlns="http://www.w3.org/2000/svg">
<path d="M0.835007 21.8351H21.835" stroke="white" stroke-width="1.67" stroke-linecap="round"/>
<path d="M0.835007 21.8352V5.03516" stroke="white" stroke-width="1.67" stroke-linecap="round"/>
<path d="M5.33499 14.8351H4.33499C4.05885 14.8351 3.83499 15.1485 3.83499 15.5351V21.1351C3.83499 21.5217 4.05885 21.8351 4.33499 21.8351H5.33499C5.61113 21.8351 5.83499 21.5217 5.83499 21.1351V15.5351C5.83499 15.1485 5.61113 14.8351 5.33499 14.8351Z" fill="white"/>
<path d="M11.335 10.8351H10.335C10.0589 10.8351 9.83501 11.1429 9.83501 11.5226V21.1476C9.83501 21.5273 10.0589 21.8351 10.335 21.8351H11.335C11.6111 21.8351 11.835 21.5273 11.835 21.1476V11.5226C11.835 11.1429 11.6111 10.8351 11.335 10.8351Z" fill="white"/>
<path d="M17.335 4.83508H16.335C16.0589 4.83508 15.835 5.15221 15.835 5.54342V21.1267C15.835 21.518 16.0589 21.8351 16.335 21.8351H17.335C17.6111 21.8351 17.835 21.518 17.835 21.1267V5.54342C17.835 5.15221 17.6111 4.83508 17.335 4.83508Z" fill="white"/>
<path d="M3.83499 13.4351L11.335 9.23508L17.335 3.63508L21.835 0.835083" stroke="white" stroke-width="1.67" stroke-linecap="round" stroke-linejoin="round"/>
<path d="M18.835 0.835083H21.835V3.63508" stroke="white" stroke-width="1.67" stroke-linecap="round" stroke-linejoin="round"/>
</svg>
