<svg width="19" height="11" viewBox="0 0 19 11" fill="none" xmlns="http://www.w3.org/2000/svg">
<path d="M11.4826 4.28618C11.4826 4.28618 14.9494 0.631557 15.3932 0.56176C15.837 0.491963 16.4872 0.31682 17.0057 0.56176C17.5241 0.8067 17.8288 1.29158 17.944 1.6947C18.0592 2.09782 14.258 7.40767 11.8227 8.27861C9.38744 9.14954 5.46799 8.05367 5.20003 8.27861C4.93206 8.50354 3.42279 9.38321 3.13588 9.58342C2.84898 9.78363 0.52224 5.66296 0.52224 5.66296C0.52224 5.66296 2.93489 2.57735 3.58755 2.347C4.24022 2.11665 5.60315 1.65594 5.8335 1.65594C6.06386 1.65594 7.27321 2.11665 7.8491 2.347C8.42498 2.57735 10.803 2.38576 11.074 2.55852C11.3451 2.73129 11.4065 2.84647 11.5908 3.30717C11.7751 3.76788 11.3958 4.74688 10.9758 4.86206" stroke="#4C7A25" stroke-width="0.871215"/>
</svg>
