<svg width="16" height="21" viewBox="0 0 16 21" fill="none" xmlns="http://www.w3.org/2000/svg">
<path d="M16 11.0849V9.92391L15.9616 9.15789C15.809 6.12427 14.9277 3.19567 13.4558 0.543728C13.1579 0.00716209 12.5404 -0.126095 12.0729 0.116594C11.59 0.367228 11.3079 1.03529 11.5973 1.56567C13.2559 4.60901 14.0439 7.97269 13.8589 11.4771C13.7132 14.2416 12.9716 16.9121 11.6497 19.3169C11.3514 19.8592 11.4818 20.5043 11.9974 20.8401C12.4445 21.1309 13.1323 21.0298 13.4315 20.4977C15.0428 17.626 15.896 14.3947 16 11.0849Z" fill="white"/>
<path d="M9.63698 2.7355C9.34633 2.2104 8.79701 1.93065 8.243 2.19672C7.73245 2.44206 7.41027 3.11806 7.72265 3.67492C8.71731 5.44965 9.32715 7.38676 9.47375 9.4558L9.5087 10.2139L9.50827 10.7871L9.47716 11.5231C9.32673 13.5484 8.75567 15.486 7.76313 17.2364C7.45203 17.7854 7.6502 18.4503 8.14114 18.7495C8.69558 19.0871 9.31267 18.8439 9.6195 18.2932C12.2988 13.484 12.3022 7.55135 9.63698 2.7355Z" fill="white"/>
<path d="M5.70513 4.74625C5.40895 4.2291 4.8217 4.05569 4.31414 4.29308C3.81041 4.5543 3.60585 5.13146 3.79549 5.70995C5.58538 8.61958 5.59604 12.3469 3.80998 15.2605C3.58753 15.8469 3.81638 16.4567 4.31797 16.7104C4.89969 16.9708 5.45498 16.7201 5.7584 16.1708C6.59326 14.6595 7.13321 13.0136 7.2308 11.2653C7.36419 8.87816 6.87794 6.79323 5.70513 4.74625Z" fill="white"/>
<path d="M1.97324 6.69529C1.60419 6.15034 0.964087 6.01046 0.446725 6.37317C-0.0267449 6.70499 -0.152888 7.41321 0.209352 7.91712C0.811945 8.75638 1.08384 9.73553 1.01736 10.7915C0.967923 11.576 0.739073 12.3447 0.272423 12.9712C-0.120075 13.4972 -0.0885365 14.2196 0.426694 14.6079C0.963236 15.012 1.63061 14.8364 2.0035 14.2685C3.533 11.9365 3.55133 9.02864 1.97324 6.69529Z" fill="white"/>
</svg>
