<svg width="19" height="19" viewBox="0 0 19 19" fill="none" xmlns="http://www.w3.org/2000/svg">
<path d="M15.1427 4.4417L14.3748 4.46028C13.7575 4.5087 13.1486 4.74629 12.7021 5.19165L9.7486 8.13908C9.56212 8.32488 9.2279 8.34514 9.04366 8.16104L6.03458 5.15449C5.61836 4.73785 5.05889 4.50419 4.48482 4.47717L3.86133 4.44733L7.42481 0.87156C7.91518 0.379478 8.5134 0.0805119 9.18801 0L9.81937 0.00168738C10.426 0.086141 11.0147 0.311914 11.4607 0.758392L15.1427 4.4417Z" fill="white"/>
<path d="M18.1511 11.5451L15.993 13.7099L14.5629 13.7088C14.0613 13.7082 13.5856 13.5083 13.23 13.1542L10.2861 10.2248C9.82997 9.77098 8.97112 9.75015 8.50659 10.2107L5.5975 13.0956C5.17734 13.5128 4.65326 13.7015 4.05898 13.7048L3.02543 13.7116L0.785343 11.4555C-0.267861 10.3948 -0.252139 8.64381 0.774667 7.55436L3.01083 5.29381L4.13649 5.29438C4.6527 5.29494 5.15936 5.46722 5.53459 5.84163L8.43357 8.73051C8.94809 9.24343 9.81986 9.24681 10.3389 8.72939L13.2362 5.83769C13.6013 5.47285 14.0905 5.291 14.6006 5.29043L15.9863 5.28931L18.1938 7.50819C19.2987 8.61791 19.2521 10.4404 18.1511 11.5451Z" fill="white"/>
<path d="M15.1319 14.5622L11.6521 18.0648C10.5338 19.1903 8.68126 19.349 7.53931 18.2112L3.84888 14.534C4.6847 14.5735 5.47559 14.3893 6.05639 13.8089L8.98964 10.88C9.22444 10.6559 9.55022 10.6542 9.77827 10.8828L12.6542 13.761C13.1367 14.2435 13.7776 14.5172 14.4506 14.5397L15.1319 14.5622Z" fill="white"/>
</svg>
